<?xml version="1.0" encoding="UTF-8"?>
<svg id="Layer_1" xmlns="http://www.w3.org/2000/svg" version="1.1" viewBox="0 0 1490 496">
  <!-- Generator: Adobe Illustrator 29.2.1, SVG Export Plug-In . SVG Version: 2.1.0 Build 116)  -->
  <defs>
    <style>
      .st0 {
        fill: none;
        stroke: #fff;
        stroke-miterlimit: 10;
        stroke-width: 6px;
      }

      .st1 {
        fill: #575757;
      }

      .st2 {
        fill: #fff;
      }

      .st3 {
        fill: #a8a8a8;
      }
    </style>
  </defs>
  <line class="st0" x1="273.9" y1="264.8" x2="1238" y2="264.8"/>
  <g>
    <polygon class="st1" points="219.8 216 274.6 264.8 219.8 313.6 219.8 216"/>
    <path class="st2" d="M222.8,222.7l47.3,42.1-47.3,42.1v-84.2M216.8,209.3v110.9l62.3-55.5-62.3-55.5h0Z"/>
  </g>
  <g>
    <polygon class="st1" points="1242.9 264.8 1297.8 216 1297.8 313.6 1242.9 264.8"/>
    <path class="st2" d="M1294.8,222.7v84.2l-47.3-42.1,47.3-42.1M1300.8,209.3l-62.3,55.5,62.3,55.5v-110.9h0Z"/>
  </g>
  <g>
    <g>
      <polygon class="st3" points="532.6 57.5 755.8 264.3 532.6 471.1 532.6 57.5"/>
      <path class="st2" d="M535.6,64.4l215.9,199.9-215.9,199.9V64.4M529.6,50.7v427.3l230.7-213.6-230.7-213.6h0Z"/>
    </g>
    <g>
      <polygon class="st2" points="304.6 265.4 527.9 58.6 527.9 472.1 304.6 265.4"/>
      <path class="st2" d="M524.9,65.5v399.8l-215.9-199.9,215.9-199.9M530.9,51.7l-230.7,213.6,230.7,213.6V51.7h0Z"/>
    </g>
  </g>
  <g>
    <g>
      <polygon class="st3" points="986.6 57.5 1209.8 264.3 986.6 471.1 986.6 57.5"/>
      <path class="st2" d="M989.6,64.4l215.9,199.9-215.9,199.9V64.4M983.6,50.7v427.3l230.7-213.6-230.7-213.6h0Z"/>
    </g>
    <g>
      <polygon class="st2" points="758.6 265.4 981.9 58.6 981.9 472.1 758.6 265.4"/>
      <path class="st2" d="M978.9,65.5v399.8l-215.9-199.9,215.9-199.9M984.9,51.7l-230.7,213.6,230.7,213.6V51.7h0Z"/>
    </g>
  </g>
  <g>
    <path class="st2" d="M17.3,257.7l4.2-21.2h6.5c1.6,0,2.9.3,4.1.9,1.1.6,2,1.5,2.6,2.7.6,1.2.9,2.7.9,4.5s0,1.2,0,1.8c0,.6-.1,1.2-.2,1.7-.3,1.3-.7,2.6-1.3,3.7-.6,1.2-1.3,2.2-2.2,3-.9.9-1.9,1.5-3.1,2-1.2.5-2.5.7-3.9.7h-7.5ZM21.2,254.8h3.8c1.1,0,2-.2,2.9-.7.9-.4,1.6-1.1,2.2-2,.6-.9,1-2,1.3-3.3l.6-3c0-.3.1-.7.1-1s0-.6,0-.9c0-1.5-.4-2.6-1.1-3.4-.8-.7-1.8-1.1-3.1-1.1h-3.8l-3.1,15.3Z"/>
    <path class="st2" d="M43.7,258.1c-1.2,0-2.2-.3-3.1-.8s-1.6-1.2-2.1-2.2c-.5-1-.8-2.1-.8-3.6s0-.9,0-1.3.1-.9.2-1.3c.3-1.4.8-2.7,1.5-3.8.7-1.1,1.6-2,2.7-2.6,1.1-.6,2.3-1,3.6-1s2.2.3,3.1.8c.9.5,1.6,1.2,2.1,2.2.5,1,.7,2.2.7,3.5s0,.9,0,1.3c0,.4-.1.9-.2,1.3-.3,1.4-.8,2.6-1.5,3.8-.7,1.1-1.7,2-2.7,2.6-1.1.6-2.3,1-3.6,1ZM44,255.4c1,0,1.9-.4,2.6-1.1.7-.7,1.3-1.8,1.5-3.2l.5-2.5c0-.2,0-.4,0-.6,0-.2,0-.4,0-.6,0-.6-.1-1.2-.3-1.7-.2-.5-.6-.8-1-1.1s-1-.4-1.7-.4c-1,0-1.9.4-2.6,1.1-.7.7-1.3,1.8-1.5,3.2l-.5,2.5c0,.2,0,.3,0,.6,0,.2,0,.4,0,.6,0,.6.1,1.2.4,1.7.2.5.6.8,1,1.1.4.3,1,.4,1.7.4Z"/>
    <path class="st2" d="M57.1,257.7h-3.2l3.2-15.8h3.2l-.7,3.4h.2c.6-1.2,1.2-2.1,2-2.8.8-.6,1.8-1,3-1s2.3.4,2.9,1.1c.7.7,1,1.8,1,3.1s0,.7,0,1c0,.4-.1.7-.2,1.1l-1.4,7.1h2l-.5,2.6h-2.5c-.7,0-1.2-.2-1.6-.5-.4-.3-.6-.8-.6-1.5s0-.2,0-.4,0-.2,0-.4l1.4-6.8c0-.3.1-.6.1-.9,0-.3,0-.5,0-.8,0-.7-.2-1.2-.5-1.6-.3-.4-.8-.6-1.6-.6s-1,.1-1.5.4c-.5.2-.9.6-1.3,1-.4.5-.8,1-1.2,1.7-.3.6-.5,1.3-.7,1.9l-1.7,8.5Z"/>
    <path class="st2" d="M76.3,234.9c.6,0,1.1.1,1.4.4s.5.6.5,1.1,0,.3,0,.5c0,.2,0,.4-.1.6-.1.5-.3,1.2-.7,1.9s-.8,1.4-1.3,2c-.5.7-1.2,1.3-1.9,1.8h-2.4c.8-.6,1.4-1.3,1.9-1.9.5-.6.9-1.3,1.3-2-.4-.1-.7-.3-.9-.5-.2-.2-.3-.5-.3-.9s0-.3,0-.5c0-.2,0-.4,0-.6.1-.5.3-.9.7-1.3s.9-.6,1.7-.6Z"/>
    <path class="st2" d="M85.1,257.7h-2.8c-1,0-1.7-.2-2.1-.6-.5-.4-.7-1-.7-1.7s0-.3,0-.5c0-.2,0-.3,0-.5l2-9.8h-2.3l.5-2.6h1.2c.6,0,1-.1,1.2-.4.2-.2.4-.6.5-1.2l.5-2.8h2.9l-.8,4.3h3.3l-.5,2.6h-3.3l-2.1,10.5h3l-.5,2.6Z"/>
    <path class="st2" d="M95.7,257.7l4.5-22.4h3.2l-2.2,10.8-.6,2.9h.2l2.5-2.7,4.7-4.3h3.7l-6.8,6.4,2.8,6.8h1.9l-.5,2.6h-1.7c-.7,0-1.3-.2-1.7-.5-.4-.3-.8-.8-1-1.5l-2.2-5.4-2.6,2.4-1,5h-3.2Z"/>
    <path class="st2" d="M115,257.7h-3.2l3.2-15.8h3.2l-.7,3.4h.2c.6-1.2,1.2-2.1,2-2.8.8-.6,1.8-1,3-1s2.3.4,2.9,1.1c.7.7,1,1.8,1,3.1s0,.7,0,1c0,.4-.1.7-.2,1.1l-1.4,7.1h2l-.5,2.6h-2.5c-.7,0-1.2-.2-1.6-.5-.4-.3-.6-.8-.6-1.5s0-.2,0-.4,0-.2,0-.4l1.4-6.8c0-.3.1-.6.1-.9,0-.3,0-.5,0-.8,0-.7-.2-1.2-.5-1.6-.3-.4-.8-.6-1.6-.6s-1,.1-1.5.4c-.5.2-.9.6-1.3,1-.4.5-.8,1-1.2,1.7-.3.6-.5,1.3-.7,1.9l-1.7,8.5Z"/>
    <path class="st2" d="M135.6,258.1c-1.2,0-2.2-.3-3.1-.8s-1.6-1.2-2.1-2.2c-.5-1-.8-2.1-.8-3.6s0-.9,0-1.3.1-.9.2-1.3c.3-1.4.8-2.7,1.5-3.8.7-1.1,1.6-2,2.7-2.6,1.1-.6,2.3-1,3.6-1s2.2.3,3.1.8c.9.5,1.6,1.2,2.1,2.2.5,1,.7,2.2.7,3.5s0,.9,0,1.3c0,.4-.1.9-.2,1.3-.3,1.4-.8,2.6-1.5,3.8-.7,1.1-1.7,2-2.7,2.6-1.1.6-2.3,1-3.6,1ZM135.9,255.4c1,0,1.9-.4,2.6-1.1.7-.7,1.3-1.8,1.5-3.2l.5-2.5c0-.2,0-.4,0-.6,0-.2,0-.4,0-.6,0-.6-.1-1.2-.3-1.7-.2-.5-.6-.8-1-1.1s-1-.4-1.7-.4c-1,0-1.9.4-2.6,1.1-.7.7-1.3,1.8-1.5,3.2l-.5,2.5c0,.2,0,.3,0,.6,0,.2,0,.4,0,.6,0,.6.1,1.2.4,1.7.2.5.6.8,1,1.1.4.3,1,.4,1.7.4Z"/>
    <path class="st2" d="M147.6,257.7l-1-15.8h3.1l.2,6.8.2,5.6h.2l2.2-4.9,3.5-7.5h3l.6,7,.3,5.5h.2l2.1-5.1,3.2-7.4h3.1l-7.2,15.8h-3.5l-.6-7.1-.3-4.5h-.2l-1.9,4.3-3.5,7.4h-3.6Z"/>
    <path class="st2" d="M171.4,253.3c.6,0,1.1.1,1.4.4.3.3.5.7.5,1.1s0,.3,0,.5c0,.2,0,.4-.1.6-.1.6-.3,1.3-.7,2-.3.7-.8,1.4-1.3,2.1-.5.7-1.2,1.3-1.9,1.8h-2.5c.8-.6,1.4-1.3,2-1.9.5-.6,1-1.3,1.3-2.1-.4-.1-.7-.3-.9-.5-.2-.2-.3-.5-.3-.9s0-.3,0-.5c0-.2,0-.4.1-.6.1-.5.4-1,.7-1.3.4-.4.9-.6,1.7-.6ZM173.2,246.2c-.6,0-1.1-.1-1.4-.4-.3-.3-.5-.6-.5-1s0-.3,0-.6c0-.2,0-.4,0-.6.1-.5.4-1,.7-1.3.4-.4.9-.6,1.7-.6s1.1.1,1.4.4c.3.3.5.6.5,1s0,.4,0,.6c0,.2,0,.4-.1.6,0,.5-.3,1-.7,1.4-.4.4-.9.6-1.7.6Z"/>
    <path class="st2" d="M42.3,294.5c-1.2,0-2.2-.3-3.1-.8-.9-.5-1.6-1.2-2.1-2.2-.5-1-.8-2.2-.8-3.6s0-.9,0-1.3c0-.4.1-.8.2-1.2.3-1.4.8-2.7,1.5-3.8.7-1.1,1.6-2,2.7-2.6,1.1-.6,2.3-.9,3.6-.9s2.6.4,3.6,1.1c1,.7,1.6,1.7,1.8,2.8l-2.6,1.1c-.2-.7-.6-1.3-1-1.7s-1.1-.6-1.9-.6-2,.3-2.7,1-1.2,1.7-1.4,2.9l-.5,2.6c0,.2,0,.5,0,.7s0,.4,0,.7c0,.6.1,1.2.3,1.7.2.5.6.9,1,1.2s1,.4,1.7.4,1.5-.2,2-.7c.5-.4,1.1-1.2,1.6-2.2l2.5,1.2c-.7,1.4-1.5,2.5-2.6,3.2-1.1.7-2.3,1.1-3.8,1.1Z"/>
    <path class="st2" d="M57,294.5c-1.2,0-2.2-.3-3.1-.8-.9-.5-1.6-1.2-2.1-2.2-.5-1-.8-2.1-.8-3.6s0-.9,0-1.3.1-.9.2-1.3c.3-1.4.8-2.7,1.5-3.8.7-1.1,1.6-2,2.7-2.6,1.1-.6,2.3-1,3.6-1s2.2.3,3.1.8c.9.5,1.6,1.2,2.1,2.2.5,1,.7,2.2.7,3.5s0,.9,0,1.3c0,.4-.1.9-.2,1.3-.3,1.4-.8,2.6-1.5,3.8-.7,1.1-1.7,2-2.7,2.6-1.1.6-2.3,1-3.6,1ZM57.2,291.8c1,0,1.9-.4,2.6-1.1.7-.7,1.3-1.8,1.5-3.2l.5-2.5c0-.2,0-.4,0-.6,0-.2,0-.4,0-.6,0-.6-.1-1.2-.3-1.7-.2-.5-.6-.8-1-1.1s-1-.4-1.7-.4c-1,0-1.9.4-2.6,1.1-.7.7-1.3,1.8-1.5,3.2l-.5,2.5c0,.2,0,.3,0,.6,0,.2,0,.4,0,.6,0,.6.1,1.2.4,1.7s.6.8,1,1.1c.4.3,1,.4,1.7.4Z"/>
    <path class="st2" d="M70.1,278.3h3.2l-1.9,9.6c0,.3-.1.6-.1.9,0,.3,0,.5,0,.7,0,.7.2,1.3.5,1.6.3.4.8.6,1.5.6s1-.1,1.5-.3c.4-.2.9-.6,1.2-1,.5-.5.8-1.1,1.2-1.7.3-.6.5-1.2.6-1.8l1.7-8.5h3.2l-2.6,13.1h2l-.5,2.6h-2.4c-.7,0-1.3-.2-1.7-.6-.4-.4-.6-.9-.6-1.5s0-.3,0-.4c0-.2,0-.3,0-.5v-.4c0,0,0,0,0,0-.6,1.2-1.2,2.1-2,2.8s-1.7,1-2.9,1-2.2-.4-2.9-1.1c-.7-.7-1-1.8-1-3.1s0-.7,0-1c0-.3.1-.7.2-1.1l1.9-9.7Z"/>
    <path class="st2" d="M89.8,294.1h-2.5c-.7,0-1.3-.2-1.7-.6-.4-.4-.6-.9-.6-1.5s0-.2,0-.4,0-.3,0-.4l3.9-19.6h3.2l-4,19.8h2.2l-.5,2.6Z"/>
    <path class="st2" d="M107.4,294.1h-2.4c-.7,0-1.3-.2-1.7-.6s-.6-.9-.6-1.5,0-.3,0-.5c0-.2,0-.3,0-.4v-.6c.1,0,0,0,0,0-.6,1.3-1.3,2.3-2.1,2.9-.8.6-1.8,1-3,1s-1.8-.2-2.5-.7c-.7-.5-1.2-1.2-1.5-2-.4-.9-.5-1.9-.5-3s0-1.1,0-1.7c0-.6.2-1.1.3-1.6.3-1.4.8-2.6,1.4-3.7.7-1.1,1.5-2,2.4-2.7,1-.7,2.1-1,3.3-1s1.9.3,2.7.8c.8.5,1.2,1.3,1.4,2.2h.2l1.8-9.3h3.2l-4,19.8h2l-.5,2.6ZM99,291.8c.6,0,1.2-.1,1.7-.4.5-.3.9-.7,1.3-1.1.4-.5.8-1,1.1-1.6.3-.6.5-1.2.6-1.9l.6-2.9c.1-.6.1-1.2,0-1.6-.2-.5-.5-.9-1-1.2-.5-.3-1.1-.4-1.9-.4-1.1,0-2.1.4-2.8,1.1-.7.7-1.2,1.8-1.5,3.2l-.5,2.2c0,.2,0,.5-.1.8,0,.3,0,.6,0,.8,0,.6,0,1.1.3,1.5.2.5.5.8.9,1.1.4.3.9.4,1.4.4Z"/>
    <path class="st2" d="M117.6,294.1l4.5-22.4h3.2l-2,10.2h.1c.6-1.3,1.3-2.3,2.1-2.9.8-.6,1.8-1,3-1s1.8.2,2.5.7c.7.5,1.2,1.2,1.5,2,.3.9.5,1.9.5,3s0,1.1,0,1.6c0,.5-.1,1.1-.2,1.6-.3,1.4-.8,2.6-1.4,3.8-.7,1.1-1.5,2-2.4,2.7-1,.7-2.1,1-3.3,1s-1.9-.3-2.7-.8-1.2-1.3-1.4-2.2h-.1l-.5,2.6h-3.2ZM124.9,291.8c1.1,0,2.1-.4,2.8-1.1.7-.7,1.2-1.8,1.5-3.2l.4-2.2c0-.2,0-.5.1-.8,0-.3,0-.6,0-.8,0-.6,0-1.1-.3-1.5-.2-.4-.5-.8-.8-1.1s-.9-.4-1.4-.4-1.2.1-1.7.4c-.5.3-.9.6-1.3,1.1-.4.5-.8,1-1.1,1.6s-.5,1.2-.7,1.9l-.6,2.8c-.1.6,0,1.1.1,1.6.2.5.5.9,1,1.2.5.3,1.1.4,1.9.4Z"/>
    <path class="st2" d="M141.8,294.5c-2,0-3.6-.6-4.7-1.8-1.1-1.2-1.6-2.8-1.6-4.9s0-.8,0-1.2.1-.8.2-1.1c.3-1.4.8-2.7,1.5-3.8.7-1.1,1.7-2,2.8-2.7,1.1-.7,2.4-1,3.8-1s1.3,0,1.9.2c.6.2,1.2.4,1.7.7.5.3.9.8,1.2,1.3.3.5.5,1.2.5,2s-.1,1.3-.4,1.8c-.3.5-.7,1-1.2,1.5-.5.4-1.2.8-2.1,1.1-.8.3-1.8.5-2.9.7s-2.4.2-3.9.3c0,.2,0,.4,0,.5s0,.3,0,.5c0,1,.3,1.7.8,2.3.5.6,1.4.9,2.5.9s1.7-.2,2.4-.6c.7-.4,1.4-1,2-1.8l2,1.7c-1,1.2-2,2.1-3.1,2.6s-2.3.8-3.5.8ZM143.7,280.5c-.7,0-1.4.2-2,.5-.6.3-1.1.8-1.5,1.4-.4.6-.7,1.3-.9,2.2l-.2.8c1.5,0,2.6-.2,3.5-.3.9-.1,1.6-.3,2.1-.6.5-.3.9-.5,1-.9.2-.3.3-.7.3-1.2,0-.8-.3-1.3-.8-1.5-.5-.3-1.1-.4-1.7-.4Z"/>
    <path class="st2" d="M152.3,294.5c-.6,0-1.1-.1-1.4-.4-.3-.3-.5-.6-.5-1s0-.3,0-.6c0-.2,0-.4,0-.6.1-.5.4-1,.7-1.3s.9-.6,1.7-.6,1.1.1,1.4.4c.3.3.5.6.5,1s0,.4,0,.6c0,.2,0,.4-.1.6,0,.5-.3,1-.7,1.4-.4.4-.9.6-1.7.6Z"/>
  </g>
  <g>
    <path class="st2" d="M1346.9,257.7l4.2-21.2h6.5c1.6,0,2.9.3,4.1.9,1.1.6,2,1.5,2.6,2.7.6,1.2.9,2.7.9,4.5s0,1.2,0,1.8c0,.6-.1,1.2-.2,1.7-.3,1.3-.7,2.6-1.3,3.7-.6,1.2-1.3,2.2-2.2,3-.9.9-1.9,1.5-3.1,2s-2.5.7-3.9.7h-7.5ZM1350.7,254.8h3.8c1.1,0,2-.2,2.9-.7.9-.4,1.6-1.1,2.2-2,.6-.9,1-2,1.3-3.3l.6-3c0-.3.1-.7.1-1s0-.6,0-.9c0-1.5-.4-2.6-1.1-3.4-.8-.7-1.8-1.1-3.1-1.1h-3.8l-3.1,15.3Z"/>
    <path class="st2" d="M1373.2,258.1c-1.2,0-2.2-.3-3.1-.8s-1.6-1.2-2.1-2.2c-.5-1-.8-2.1-.8-3.6s0-.9,0-1.3.1-.9.2-1.3c.3-1.4.8-2.7,1.5-3.8.7-1.1,1.6-2,2.7-2.6,1.1-.6,2.3-1,3.6-1s2.2.3,3.1.8c.9.5,1.6,1.2,2.1,2.2.5,1,.7,2.2.7,3.5s0,.9,0,1.3c0,.4-.1.9-.2,1.3-.3,1.4-.8,2.6-1.5,3.8-.7,1.1-1.7,2-2.7,2.6-1.1.6-2.3,1-3.6,1ZM1373.5,255.4c1,0,1.9-.4,2.6-1.1.7-.7,1.3-1.8,1.5-3.2l.5-2.5c0-.2,0-.4,0-.6,0-.2,0-.4,0-.6,0-.6-.1-1.2-.3-1.7-.2-.5-.6-.8-1-1.1-.5-.3-1-.4-1.7-.4-1,0-1.9.4-2.6,1.1-.7.7-1.3,1.8-1.5,3.2l-.5,2.5c0,.2,0,.3,0,.6,0,.2,0,.4,0,.6,0,.6.1,1.2.4,1.7.2.5.6.8,1,1.1s1,.4,1.7.4Z"/>
    <path class="st2" d="M1390.6,257.7l4.5-22.4h3.2l-2.2,10.8-.6,2.9h.2l2.5-2.7,4.7-4.3h3.7l-6.8,6.4,2.8,6.8h1.9l-.5,2.6h-1.7c-.7,0-1.3-.2-1.7-.5-.4-.3-.8-.8-1-1.5l-2.2-5.4-2.6,2.4-1,5h-3.2Z"/>
    <path class="st2" d="M1409.9,257.7h-3.2l3.2-15.8h3.2l-.7,3.4h.2c.6-1.2,1.2-2.1,2-2.8.8-.6,1.8-1,3-1s2.3.4,2.9,1.1c.7.7,1,1.8,1,3.1s0,.7,0,1c0,.4-.1.7-.2,1.1l-1.4,7.1h2l-.5,2.6h-2.5c-.7,0-1.2-.2-1.6-.5s-.6-.8-.6-1.5,0-.2,0-.4c0-.1,0-.2,0-.4l1.4-6.8c0-.3.1-.6.1-.9,0-.3,0-.5,0-.8,0-.7-.2-1.2-.5-1.6-.3-.4-.8-.6-1.6-.6s-1,.1-1.5.4c-.5.2-.9.6-1.3,1-.4.5-.8,1-1.2,1.7-.3.6-.5,1.3-.7,1.9l-1.7,8.5Z"/>
    <path class="st2" d="M1430.5,258.1c-1.2,0-2.2-.3-3.1-.8s-1.6-1.2-2.1-2.2c-.5-1-.8-2.1-.8-3.6s0-.9,0-1.3.1-.9.2-1.3c.3-1.4.8-2.7,1.5-3.8.7-1.1,1.6-2,2.7-2.6,1.1-.6,2.3-1,3.6-1s2.2.3,3.1.8c.9.5,1.6,1.2,2.1,2.2.5,1,.7,2.2.7,3.5s0,.9,0,1.3c0,.4-.1.9-.2,1.3-.3,1.4-.8,2.6-1.5,3.8-.7,1.1-1.7,2-2.7,2.6-1.1.6-2.3,1-3.6,1ZM1430.8,255.4c1,0,1.9-.4,2.6-1.1.7-.7,1.3-1.8,1.5-3.2l.5-2.5c0-.2,0-.4,0-.6,0-.2,0-.4,0-.6,0-.6-.1-1.2-.3-1.7-.2-.5-.6-.8-1-1.1-.5-.3-1-.4-1.7-.4-1,0-1.9.4-2.6,1.1-.7.7-1.3,1.8-1.5,3.2l-.5,2.5c0,.2,0,.3,0,.6,0,.2,0,.4,0,.6,0,.6.1,1.2.4,1.7.2.5.6.8,1,1.1s1,.4,1.7.4Z"/>
    <path class="st2" d="M1442.4,257.7l-1-15.8h3.1l.2,6.8.2,5.6h.2l2.2-4.9,3.5-7.5h3l.6,7,.3,5.5h.2l2.1-5.1,3.2-7.4h3.1l-7.2,15.8h-3.5l-.6-7.1-.3-4.5h-.2l-1.9,4.3-3.5,7.4h-3.6Z"/>
    <path class="st2" d="M1466.3,253.3c.6,0,1.1.1,1.4.4.3.3.5.7.5,1.1s0,.3,0,.5c0,.2,0,.4-.1.6-.1.6-.3,1.3-.7,2-.3.7-.8,1.4-1.3,2.1-.5.7-1.2,1.3-1.9,1.8h-2.5c.8-.6,1.4-1.3,2-1.9.5-.6,1-1.3,1.3-2.1-.4-.1-.7-.3-.9-.5-.2-.2-.3-.5-.3-.9s0-.3,0-.5c0-.2,0-.4.1-.6.1-.5.4-1,.7-1.3.4-.4.9-.6,1.7-.6ZM1468,246.2c-.6,0-1.1-.1-1.4-.4-.3-.3-.5-.6-.5-1s0-.3,0-.6c0-.2,0-.4,0-.6.1-.5.4-1,.7-1.3.4-.4.9-.6,1.7-.6s1.1.1,1.4.4c.3.3.5.6.5,1s0,.4,0,.6c0,.2,0,.4-.1.6,0,.5-.3,1-.7,1.4-.4.4-.9.6-1.7.6Z"/>
    <path class="st2" d="M1345,294.5c-1.3,0-2.4-.2-3.5-.7-1.1-.5-2-1.2-2.6-2.1l2.1-1.9c.5.7,1.1,1.2,1.7,1.5.7.4,1.4.5,2.3.5s1.8-.2,2.3-.7c.6-.4.8-1,.8-1.8s-.1-.8-.4-1.1c-.3-.3-.8-.5-1.5-.7l-1.4-.2c-.8-.1-1.6-.4-2.2-.7-.6-.3-1.1-.8-1.5-1.3-.4-.6-.5-1.3-.5-2.1s.2-1.8.7-2.6c.4-.8,1.1-1.4,2-1.9s2.1-.7,3.5-.7,2.2.2,3.1.6c.9.4,1.7,1,2.3,1.8l-2.1,1.9c-.4-.5-.8-.9-1.4-1.2s-1.3-.5-2.1-.5-1.7.2-2.2.6-.7,1-.7,1.6.1.8.4,1.1.8.5,1.5.7l1.4.2c.9.2,1.6.4,2.3.7s1.1.8,1.5,1.3c.3.6.5,1.3.5,2.1s-.3,2-.8,2.8c-.5.8-1.2,1.5-2.2,1.9s-2,.7-3.3.7Z"/>
    <path class="st2" d="M1354,294.1l4.5-22.4h3.2l-2,10h.2c.6-1.2,1.2-2.1,2-2.8.8-.6,1.8-1,3-1s2.3.4,2.9,1.1c.7.7,1,1.8,1,3.1s0,.7,0,1c0,.4-.1.7-.2,1.1l-1.4,7.1h2l-.5,2.6h-2.5c-.7,0-1.2-.2-1.6-.5s-.6-.8-.6-1.5,0-.2,0-.4c0-.1,0-.2,0-.4l1.4-6.8c0-.3.1-.6.1-.9,0-.3,0-.5,0-.8,0-.7-.2-1.2-.5-1.6-.3-.4-.8-.6-1.6-.6s-1,.1-1.5.4c-.5.2-.9.6-1.3,1-.4.5-.8,1-1.2,1.7-.3.6-.5,1.3-.7,1.9l-1.7,8.5h-3.2Z"/>
    <path class="st2" d="M1377.8,294.5c-1.2,0-2.2-.3-3.1-.8-.9-.5-1.6-1.2-2.1-2.2-.5-1-.8-2.1-.8-3.6s0-.9,0-1.3.1-.9.2-1.3c.3-1.4.8-2.7,1.5-3.8.7-1.1,1.6-2,2.7-2.6,1.1-.6,2.3-1,3.6-1s2.2.3,3.1.8c.9.5,1.6,1.2,2.1,2.2.5,1,.7,2.2.7,3.5s0,.9,0,1.3c0,.4-.1.9-.2,1.3-.3,1.4-.8,2.6-1.5,3.8-.7,1.1-1.7,2-2.7,2.6-1.1.6-2.3,1-3.6,1ZM1378.1,291.8c1,0,1.9-.4,2.6-1.1.7-.7,1.3-1.8,1.5-3.2l.5-2.5c0-.2,0-.4,0-.6,0-.2,0-.4,0-.6,0-.6-.1-1.2-.3-1.7-.2-.5-.6-.8-1-1.1-.5-.3-1-.4-1.7-.4-1,0-1.9.4-2.6,1.1-.7.7-1.3,1.8-1.5,3.2l-.5,2.5c0,.2,0,.3,0,.6,0,.2,0,.4,0,.6,0,.6.1,1.2.4,1.7s.6.8,1,1.1,1,.4,1.7.4Z"/>
    <path class="st2" d="M1391,278.3h3.2l-1.9,9.6c0,.3-.1.6-.1.9s0,.5,0,.7c0,.7.2,1.3.5,1.6.3.4.8.6,1.5.6s1-.1,1.5-.3c.4-.2.9-.6,1.2-1,.5-.5.8-1.1,1.2-1.7.3-.6.5-1.2.6-1.8l1.7-8.5h3.2l-2.6,13.1h2l-.5,2.6h-2.4c-.7,0-1.3-.2-1.7-.6-.4-.4-.6-.9-.6-1.5s0-.3,0-.4,0-.3,0-.5v-.4c0,0,0,0,0,0-.6,1.2-1.2,2.1-2,2.8s-1.7,1-2.9,1-2.2-.4-2.9-1.1c-.7-.7-1-1.8-1-3.1s0-.7,0-1c0-.3.1-.7.2-1.1l1.9-9.7Z"/>
    <path class="st2" d="M1410.7,294.1h-2.5c-.7,0-1.3-.2-1.7-.6-.4-.4-.6-.9-.6-1.5s0-.2,0-.4c0-.1,0-.3,0-.4l3.9-19.6h3.2l-4,19.8h2.2l-.5,2.6Z"/>
    <path class="st2" d="M1428.3,294.1h-2.4c-.7,0-1.3-.2-1.7-.6s-.6-.9-.6-1.5,0-.3,0-.5c0-.2,0-.3,0-.4v-.6c.1,0,0,0,0,0-.6,1.3-1.3,2.3-2.1,2.9-.8.6-1.8,1-3,1s-1.8-.2-2.5-.7c-.7-.5-1.2-1.2-1.5-2-.4-.9-.5-1.9-.5-3s0-1.1,0-1.7c0-.6.2-1.1.3-1.6.3-1.4.8-2.6,1.4-3.7.7-1.1,1.5-2,2.4-2.7,1-.7,2.1-1,3.3-1s1.9.3,2.7.8c.8.5,1.2,1.3,1.4,2.2h.2l1.8-9.3h3.2l-4,19.8h2l-.5,2.6ZM1419.9,291.8c.6,0,1.2-.1,1.7-.4.5-.3.9-.7,1.3-1.1.4-.5.8-1,1.1-1.6.3-.6.5-1.2.6-1.9l.6-2.9c.1-.6.1-1.2,0-1.6-.2-.5-.5-.9-1-1.2-.5-.3-1.1-.4-1.9-.4-1.1,0-2.1.4-2.8,1.1-.7.7-1.2,1.8-1.5,3.2l-.5,2.2c0,.2,0,.5-.1.8,0,.3,0,.6,0,.8,0,.6,0,1.1.3,1.5.2.5.5.8.9,1.1.4.3.9.4,1.4.4Z"/>
    <path class="st2" d="M1438.5,294.1l4.5-22.4h3.2l-2,10.2h.1c.6-1.3,1.3-2.3,2.1-2.9.8-.6,1.8-1,3-1s1.8.2,2.5.7c.7.5,1.2,1.2,1.5,2s.5,1.9.5,3,0,1.1,0,1.6c0,.5-.1,1.1-.2,1.6-.3,1.4-.8,2.6-1.4,3.8-.7,1.1-1.5,2-2.4,2.7-1,.7-2.1,1-3.3,1s-1.9-.3-2.7-.8-1.2-1.3-1.4-2.2h-.1l-.5,2.6h-3.2ZM1445.8,291.8c1.1,0,2.1-.4,2.8-1.1.7-.7,1.2-1.8,1.5-3.2l.4-2.2c0-.2,0-.5.1-.8,0-.3,0-.6,0-.8,0-.6,0-1.1-.3-1.5-.2-.4-.5-.8-.8-1.1-.4-.3-.9-.4-1.4-.4s-1.2.1-1.7.4c-.5.3-.9.6-1.3,1.1-.4.5-.8,1-1.1,1.6s-.5,1.2-.7,1.9l-.6,2.8c-.1.6,0,1.1.1,1.6.2.5.5.9,1,1.2.5.3,1.1.4,1.9.4Z"/>
    <path class="st2" d="M1462.7,294.5c-2,0-3.6-.6-4.7-1.8-1.1-1.2-1.6-2.8-1.6-4.9s0-.8,0-1.2c0-.4.1-.8.2-1.1.3-1.4.8-2.7,1.5-3.8.7-1.1,1.7-2,2.8-2.7,1.1-.7,2.4-1,3.8-1s1.3,0,1.9.2c.6.2,1.2.4,1.7.7.5.3.9.8,1.2,1.3.3.5.5,1.2.5,2s-.1,1.3-.4,1.8c-.3.5-.7,1-1.2,1.5s-1.2.8-2.1,1.1c-.8.3-1.8.5-2.9.7-1.1.2-2.4.2-3.9.3,0,.2,0,.4,0,.5,0,.2,0,.3,0,.5,0,1,.3,1.7.8,2.3s1.4.9,2.5.9,1.7-.2,2.4-.6c.7-.4,1.4-1,2-1.8l2,1.7c-1,1.2-2,2.1-3.1,2.6s-2.3.8-3.5.8ZM1464.6,280.5c-.7,0-1.4.2-2,.5-.6.3-1.1.8-1.5,1.4-.4.6-.7,1.3-.9,2.2l-.2.8c1.5,0,2.6-.2,3.5-.3.9-.1,1.6-.3,2.1-.6.5-.3.9-.5,1-.9s.3-.7.3-1.2c0-.8-.3-1.3-.8-1.5-.5-.3-1.1-.4-1.7-.4Z"/>
    <path class="st2" d="M1473.2,294.5c-.6,0-1.1-.1-1.4-.4-.3-.3-.5-.6-.5-1s0-.3,0-.6c0-.2,0-.4,0-.6.1-.5.4-1,.7-1.3.4-.4.9-.6,1.7-.6s1.1.1,1.4.4c.3.3.5.6.5,1s0,.4,0,.6c0,.2,0,.4-.1.6,0,.5-.3,1-.7,1.4-.4.4-.9.6-1.7.6Z"/>
  </g>
  <g>
    <path class="st2" d="M309.8,100.8v-19.5h7.1c1.7,0,3.2.4,4.5,1.1s2.2,1.8,2.9,3.3c.7,1.4,1,3.3,1,5.4s-.3,4-1,5.4c-.7,1.4-1.7,2.5-2.9,3.3s-2.8,1.1-4.5,1.1h-7.1ZM313.5,97.5h3.4c.9,0,1.7-.2,2.4-.5.7-.4,1.2-.9,1.6-1.7.4-.7.6-1.7.6-2.8v-3.1c0-1.1-.2-2-.6-2.8-.4-.7-.9-1.3-1.6-1.6-.7-.4-1.5-.5-2.4-.5h-3.4v13Z"/>
    <path class="st2" d="M337.2,100.8h-8.9v-3h2.6v-13.6h-2.6v-3h8.9v3h-2.6v13.6h2.6v3Z"/>
    <path class="st2" d="M347,101.1c-1.7,0-3.1-.3-4.3-.9-1.2-.6-2.2-1.4-3-2.4l2.5-2.4c.7.8,1.4,1.4,2.3,1.8s1.8.6,2.8.6,2-.3,2.6-.8.9-1.2.9-2,0-.8-.2-1.2-.4-.6-.8-.8-.9-.4-1.6-.5l-1.8-.3c-1.3-.2-2.4-.6-3.3-1s-1.5-1.1-1.9-1.9c-.4-.8-.6-1.7-.6-2.7s.3-2.2.9-3.1c.6-.9,1.4-1.5,2.5-2,1.1-.5,2.3-.7,3.8-.7s2.8.2,3.9.7c1.1.5,2,1.2,2.8,2.1l-2.5,2.4c-.5-.6-1.1-1.1-1.8-1.5-.7-.4-1.6-.6-2.6-.6s-1.8.2-2.4.6c-.5.4-.8,1-.8,1.7s0,.9.3,1.2c.2.3.5.6.9.7s.9.3,1.5.5l1.8.3c1.3.2,2.4.6,3.3,1.1.9.5,1.5,1.1,1.9,1.9.4.8.6,1.7.6,2.8s-.3,2.3-.9,3.2c-.6.9-1.4,1.7-2.5,2.2-1.1.5-2.4.8-4,.8Z"/>
    <path class="st2" d="M365.7,101.1c-1.7,0-3.2-.4-4.5-1.1-1.3-.7-2.2-1.9-2.9-3.3-.7-1.5-1-3.3-1-5.5s.3-4.1,1-5.6c.7-1.5,1.7-2.7,2.9-3.5,1.3-.8,2.7-1.2,4.5-1.2s3.2.4,4.4,1.1,2.1,1.9,2.8,3.4l-3.2,1.7c-.3-.9-.7-1.6-1.4-2.1-.6-.5-1.5-.8-2.6-.8s-2.5.5-3.3,1.4c-.8.9-1.2,2.2-1.2,3.9v3.1c0,1.7.4,3,1.2,3.9.8.9,1.9,1.4,3.3,1.4s2-.3,2.7-.9c.7-.6,1.2-1.3,1.5-2.2l3,1.8c-.7,1.5-1.6,2.6-2.8,3.4s-2.7,1.2-4.4,1.2Z"/>
    <path class="st2" d="M383.4,101.1c-1.7,0-3.2-.4-4.5-1.1-1.3-.8-2.3-1.9-3-3.4-.7-1.5-1-3.4-1-5.6s.4-4.1,1-5.6c.7-1.5,1.7-2.6,3-3.4,1.3-.8,2.8-1.1,4.5-1.1s3.2.4,4.5,1.1c1.3.8,2.3,1.9,3,3.4.7,1.5,1,3.4,1,5.6s-.4,4.1-1,5.6c-.7,1.5-1.7,2.6-3,3.4-1.3.8-2.8,1.1-4.5,1.1ZM383.4,97.8c1,0,1.8-.2,2.5-.6.7-.4,1.2-1,1.6-1.8.4-.8.6-1.7.6-2.8v-3c0-1.1-.2-2.1-.6-2.9-.4-.8-.9-1.4-1.6-1.8-.7-.4-1.5-.6-2.5-.6s-1.7.2-2.4.6c-.7.4-1.2,1-1.6,1.8-.4.8-.6,1.7-.6,2.9v3c0,1.1.2,2,.6,2.8.4.8.9,1.4,1.6,1.8.7.4,1.5.6,2.4.6Z"/>
    <path class="st2" d="M403.6,100.8h-4.2l-6.4-19.5h3.8l3,9.5,1.7,6.5h0l1.7-6.5,3-9.5h3.7l-6.4,19.5Z"/>
    <path class="st2" d="M425.7,100.8h-12.9v-19.5h12.9v3.3h-9.2v4.8h8.1v3.2h-8.1v5h9.2v3.3Z"/>
    <path class="st2" d="M433.3,93.2v7.5h-3.7v-19.5h8.8c1.2,0,2.2.2,3.1.7s1.5,1.2,2,2.1c.5.9.7,2,.7,3.2s-.3,2.5-.9,3.5c-.6,1-1.5,1.7-2.7,2.1l4,8h-4.1l-3.6-7.5h-3.5ZM433.3,90.1h4.8c.5,0,.9,0,1.2-.3s.6-.4.8-.8c.2-.3.3-.7.3-1.2v-1.3c0-.5,0-.9-.3-1.2-.2-.3-.4-.6-.8-.7-.3-.2-.7-.3-1.2-.3h-4.8v5.7Z"/>
  </g>
  <g>
    <path class="st2" d="M618.5,100.8v-19.5h7.1c1.7,0,3.2.4,4.5,1.1s2.2,1.8,2.9,3.3c.7,1.4,1,3.3,1,5.4s-.3,4-1,5.4c-.7,1.4-1.7,2.5-2.9,3.3s-2.8,1.1-4.5,1.1h-7.1ZM622.2,97.5h3.4c.9,0,1.7-.2,2.4-.5.7-.4,1.2-.9,1.6-1.7.4-.7.6-1.7.6-2.8v-3.1c0-1.1-.2-2-.6-2.8-.4-.7-.9-1.3-1.6-1.6-.7-.4-1.5-.5-2.4-.5h-3.4v13Z"/>
    <path class="st2" d="M650.7,100.8h-12.9v-19.5h12.9v3.3h-9.2v4.8h8.1v3.2h-8.1v5h9.2v3.3Z"/>
    <path class="st2" d="M658.3,100.8h-3.7v-19.5h12.6v3.3h-8.9v4.8h7.7v3.2h-7.7v8.3Z"/>
    <path class="st2" d="M678.8,100.8h-8.9v-3h2.6v-13.6h-2.6v-3h8.9v3h-2.6v13.6h2.6v3Z"/>
    <path class="st2" d="M694.1,100.8l-5.9-10-2-4.1h0v14.1h-3.5v-19.5h4.1l5.9,10,2,4.1h0v-14.1h3.5v19.5h-4.1Z"/>
    <path class="st2" d="M715.6,100.8h-12.9v-19.5h12.9v3.3h-9.2v4.8h8.1v3.2h-8.1v5h9.2v3.3Z"/>
  </g>
  <g>
    <path class="st2" d="M785.9,100.8v-19.5h7.1c1.7,0,3.2.4,4.5,1.1s2.2,1.8,2.9,3.3c.7,1.4,1,3.3,1,5.4s-.3,4-1,5.4c-.7,1.4-1.7,2.5-2.9,3.3s-2.8,1.1-4.5,1.1h-7.1ZM789.6,97.5h3.4c.9,0,1.7-.2,2.4-.5.7-.4,1.2-.9,1.6-1.7.4-.7.6-1.7.6-2.8v-3.1c0-1.1-.2-2-.6-2.8-.4-.7-.9-1.3-1.6-1.6-.7-.4-1.5-.5-2.4-.5h-3.4v13Z"/>
    <path class="st2" d="M818.1,100.8h-12.9v-19.5h12.9v3.3h-9.2v4.8h8.1v3.2h-8.1v5h9.2v3.3Z"/>
    <path class="st2" d="M830.7,100.8h-4.2l-6.4-19.5h3.8l3,9.5,1.7,6.5h0l1.7-6.5,3-9.5h3.7l-6.4,19.5Z"/>
    <path class="st2" d="M852.7,100.8h-12.9v-19.5h12.9v3.3h-9.2v4.8h8.1v3.2h-8.1v5h9.2v3.3Z"/>
    <path class="st2" d="M868,100.8h-11.4v-19.5h3.7v16.3h7.7v3.3Z"/>
    <path class="st2" d="M877.8,101.1c-1.7,0-3.2-.4-4.5-1.1-1.3-.8-2.3-1.9-3-3.4-.7-1.5-1-3.4-1-5.6s.4-4.1,1-5.6c.7-1.5,1.7-2.6,3-3.4,1.3-.8,2.8-1.1,4.5-1.1s3.2.4,4.5,1.1c1.3.8,2.3,1.9,3,3.4.7,1.5,1,3.4,1,5.6s-.4,4.1-1,5.6c-.7,1.5-1.7,2.6-3,3.4-1.3.8-2.8,1.1-4.5,1.1ZM877.8,97.8c1,0,1.8-.2,2.5-.6.7-.4,1.2-1,1.6-1.8s.6-1.7.6-2.8v-3c0-1.1-.2-2.1-.6-2.9-.4-.8-.9-1.4-1.6-1.8-.7-.4-1.5-.6-2.5-.6s-1.7.2-2.4.6c-.7.4-1.2,1-1.6,1.8-.4.8-.6,1.7-.6,2.9v3c0,1.1.2,2,.6,2.8s.9,1.4,1.6,1.8c.7.4,1.5.6,2.4.6Z"/>
    <path class="st2" d="M893.8,100.8h-3.7v-19.5h8.8c1.2,0,2.2.3,3.1.8s1.5,1.2,2,2.1c.5.9.7,2,.7,3.2s-.2,2.3-.7,3.2c-.5.9-1.1,1.6-2,2.1s-1.9.8-3.1.8h-5.1v7.4ZM893.8,84.5v5.7h4.8c.5,0,.9,0,1.2-.3s.6-.4.8-.8c.2-.3.3-.7.3-1.2v-1.3c0-.5,0-.9-.3-1.2-.2-.3-.4-.6-.8-.7-.3-.2-.7-.3-1.2-.3h-4.8Z"/>
  </g>
  <g>
    <path class="st2" d="M1084.5,100.3v-19.5h7.1c1.7,0,3.2.4,4.5,1.1s2.2,1.8,2.9,3.3c.7,1.4,1,3.3,1,5.4s-.3,4-1,5.4c-.7,1.4-1.7,2.5-2.9,3.3s-2.8,1.1-4.5,1.1h-7.1ZM1088.2,97h3.4c.9,0,1.7-.2,2.4-.5.7-.4,1.2-.9,1.6-1.7.4-.7.6-1.7.6-2.8v-3.1c0-1.1-.2-2-.6-2.8s-.9-1.3-1.6-1.6c-.7-.4-1.5-.5-2.4-.5h-3.4v13Z"/>
    <path class="st2" d="M1116.7,100.3h-12.9v-19.5h12.9v3.3h-9.2v4.8h8.1v3.2h-8.1v5h9.2v3.3Z"/>
    <path class="st2" d="M1132,100.3h-11.4v-19.5h3.7v16.3h7.7v3.3Z"/>
    <path class="st2" d="M1143.3,100.3h-8.9v-3h2.6v-13.6h-2.6v-3h8.9v3h-2.6v13.6h2.6v3Z"/>
    <path class="st2" d="M1155.8,100.3h-4.2l-6.4-19.5h3.8l3,9.5,1.7,6.5h0l1.7-6.5,3-9.5h3.7l-6.4,19.5Z"/>
    <path class="st2" d="M1177.8,100.3h-12.9v-19.5h12.9v3.3h-9.2v4.8h8.1v3.2h-8.1v5h9.2v3.3Z"/>
    <path class="st2" d="M1185.4,92.8v7.5h-3.7v-19.5h8.8c1.2,0,2.2.2,3.1.7.9.5,1.5,1.2,2,2.1.5.9.7,2,.7,3.2s-.3,2.5-.9,3.5c-.6,1-1.5,1.7-2.7,2.1l4,8h-4.1l-3.6-7.5h-3.5ZM1185.4,89.7h4.8c.5,0,.9,0,1.2-.3s.6-.4.8-.8c.2-.3.3-.7.3-1.2v-1.3c0-.5,0-.9-.3-1.2-.2-.3-.4-.6-.8-.7-.3-.2-.7-.3-1.2-.3h-4.8v5.7Z"/>
  </g>
  <g>
    <path d="M373.4,271.2h2v-16.5h-2v-1.5h9.9c.9,0,1.6.1,2.3.3.7.2,1.3.5,1.8.9s.9,1,1.1,1.6.4,1.4.4,2.3c0,1.3-.4,2.5-1.2,3.3-.8.9-1.8,1.4-3.1,1.7l3.4,6.1c.4.7.8,1.1,1.2,1.4s1,.4,1.6.4h.2v1.5h-2.2c-.6,0-1.1,0-1.5-.2-.4-.1-.8-.3-1.1-.5-.3-.2-.6-.5-.8-.8s-.5-.7-.7-1.2l-3.3-6.2h-2.8v7.3h2v1.5h-7.4v-1.5ZM378.7,262.3h3.7c1,0,1.8-.3,2.3-.8.5-.6.8-1.3.8-2.2v-1.3c0-.9-.3-1.7-.8-2.2-.5-.6-1.3-.8-2.3-.8h-3.7v7.5Z"/>
    <path d="M399,273.1c-1.1,0-2-.2-2.9-.5-.8-.4-1.5-.9-2.1-1.6-.6-.7-1-1.5-1.3-2.4-.3-.9-.5-2-.5-3.1s.2-2.2.5-3.1c.3-.9.8-1.7,1.4-2.4.6-.7,1.3-1.2,2.1-1.5.8-.4,1.7-.5,2.7-.5s1.9.2,2.7.5c.8.3,1.5.8,2,1.4.6.6,1,1.3,1.3,2.2.3.8.4,1.8.4,2.8v.8h-9.6v.9c0,1.5.4,2.6,1.1,3.4.7.8,1.7,1.2,2.9,1.2s2-.2,2.6-.7,1.2-1.1,1.5-1.8l1.2.7c-.2.5-.4,1-.7,1.4-.3.5-.7.9-1.2,1.3-.5.4-1.1.7-1.7.9-.7.2-1.4.4-2.2.4ZM395.6,264h6.4v-.3c0-1.3-.3-2.4-.8-3.1-.5-.7-1.3-1.1-2.4-1.1s-1.8.4-2.4,1.1c-.6.7-.8,1.8-.8,3.1v.4Z"/>
    <path d="M413.5,273.1c-1,0-1.7-.2-2.3-.6-.6-.4-1-.8-1.2-1.2h-.1v1.4h-2.1v-4.3h2.1v.5c0,.8.2,1.4.7,1.9.5.5,1.3.7,2.4.7,2,0,3-.7,3-2.1s-.7-1.8-2.2-2.2l-1.5-.4c-1.5-.4-2.6-.9-3.3-1.6s-1.1-1.7-1.1-3,.5-2.4,1.4-3.2,2.1-1.1,3.6-1.1,1.7.2,2.2.5.9.7,1.1,1.1h.1v-1.3h2.1v4.3h-2.1v-.8c0-1.5-1-2.2-3-2.2s-1.5.2-2,.5c-.5.3-.7.8-.7,1.5,0,1.2.7,1.9,2.2,2.3l1.4.3c1.5.3,2.6.8,3.4,1.5s1.1,1.7,1.1,3-.5,2.4-1.4,3.2c-1,.8-2.3,1.2-3.9,1.2Z"/>
    <path d="M428.2,273.1c-1.1,0-2-.2-2.9-.5-.8-.4-1.5-.9-2.1-1.6-.6-.7-1-1.5-1.3-2.4-.3-.9-.5-2-.5-3.1s.2-2.2.5-3.1c.3-.9.8-1.7,1.4-2.4.6-.7,1.3-1.2,2.1-1.5.8-.4,1.7-.5,2.7-.5s1.9.2,2.7.5c.8.3,1.5.8,2,1.4.6.6,1,1.3,1.3,2.2.3.8.4,1.8.4,2.8v.8h-9.6v.9c0,1.5.4,2.6,1.1,3.4.7.8,1.7,1.2,2.9,1.2s2-.2,2.6-.7,1.2-1.1,1.5-1.8l1.2.7c-.2.5-.4,1-.7,1.4-.3.5-.7.9-1.2,1.3-.5.4-1.1.7-1.7.9-.7.2-1.4.4-2.2.4ZM424.8,264h6.4v-.3c0-1.3-.3-2.4-.8-3.1-.5-.7-1.3-1.1-2.4-1.1s-1.8.4-2.4,1.1c-.6.7-.8,1.8-.8,3.1v.4Z"/>
    <path d="M441.4,273.1c-1.5,0-2.6-.4-3.3-1.1-.7-.7-1.1-1.7-1.1-3s.5-2.5,1.5-3.2c1-.7,2.7-1.1,4.9-1.1h2v-1.9c0-1.1-.3-2-.8-2.6-.5-.6-1.3-.9-2.4-.9s-1.6.1-2.1.4h0c.2.2.4.4.6.6.2.2.3.6.3,1s-.2.9-.5,1.3-.8.5-1.3.5-.9-.2-1.2-.5c-.3-.3-.5-.8-.5-1.3s.1-.8.4-1.2c.3-.4.6-.8,1.1-1.1s1.1-.6,1.8-.8c.7-.2,1.5-.3,2.4-.3,1.8,0,3.1.4,4,1.2.9.8,1.3,2,1.3,3.4v8.7h1.9v1.3c-.3.1-.6.3-1,.4s-.8.2-1.3.2c-.9,0-1.5-.2-1.9-.7-.4-.4-.6-1-.6-1.7h0c0-.1-.1-.1-.1-.1-.1.3-.3.6-.5.9-.2.3-.5.6-.8.8-.3.2-.7.4-1.2.6-.5.1-1,.2-1.7.2ZM442.6,271.1c.8,0,1.5-.2,2-.6.5-.4.8-1,.8-1.9v-2.5h-1.7c-1.3,0-2.2.2-2.8.6-.5.4-.8,1-.8,1.8v.5c0,.7.2,1.2.6,1.5.4.3,1,.5,1.8.5Z"/>
    <path d="M452.6,271.2h1.9v-10.8l-1.9-.4v-1.2l5-1v2.6h.1c.1-.3.3-.7.5-1,.2-.3.4-.6.7-.8.3-.2.6-.4,1-.6.4-.1.8-.2,1.3-.2.9,0,1.5.2,2.1.6.5.4.8,1,.8,1.8s-.2,1.1-.5,1.5c-.3.4-.8.5-1.3.5s-1-.2-1.4-.5-.5-.7-.5-1.2,0-.6.2-.8c.1-.2.3-.3.5-.4h0c0-.1-.1-.1-.2-.1,0,0-.2,0-.3,0-.4,0-.7,0-1,.3-.3.2-.7.4-.9.7-.3.3-.5.6-.7,1s-.3.7-.3,1.1v8.7h2.5v1.5h-7.5v-1.5Z"/>
    <path d="M472.3,273.1c-1.1,0-2.1-.2-2.9-.6-.8-.4-1.6-.9-2.1-1.6s-1-1.5-1.3-2.4c-.3-.9-.4-2-.4-3.1s.2-2.3.5-3.2c.4-.9.8-1.7,1.5-2.4.6-.7,1.4-1.2,2.3-1.5.9-.3,1.8-.5,2.8-.5,1.6,0,2.9.3,3.8,1,.9.7,1.4,1.5,1.4,2.6s-.2,1.2-.5,1.5c-.4.4-.8.5-1.4.5s-1.1-.2-1.4-.5-.5-.8-.5-1.3.1-.8.3-1.1c.2-.3.5-.6.9-.7h0c-.2-.2-.5-.3-.8-.4s-.8-.1-1.3-.1-1.2.1-1.7.3c-.5.2-.9.5-1.3.9-.4.4-.6.9-.8,1.4-.2.6-.3,1.2-.3,1.9v2.4c0,1.4.3,2.5,1,3.3.7.8,1.6,1.2,2.8,1.2s2-.2,2.6-.7c.6-.5,1.1-1.1,1.4-1.8l1.2.7c-.2.5-.4,1-.7,1.4-.3.5-.7.9-1.2,1.3-.5.4-1,.7-1.7.9-.6.2-1.4.4-2.2.4Z"/>
    <path d="M479.9,271.2h1.9v-17.2l-1.9-.4v-1.2l5-1v9h.1c.1-.3.3-.6.5-1,.2-.3.5-.6.9-.8.3-.2.7-.4,1.2-.6.4-.1,1-.2,1.5-.2,1.8,0,3,.5,3.8,1.4.7.9,1.1,2.3,1.1,4.1v8h1.9v1.5h-6.9v-1.5h1.8v-7.8c0-1.2-.2-2.1-.7-2.7-.5-.6-1.2-.8-2.2-.8s-.7,0-1.1.2c-.4.1-.7.3-1,.5-.3.2-.5.5-.7.8-.2.3-.3.7-.3,1.1v8.7h1.8v1.5h-6.9v-1.5Z"/>
  </g>
  <g>
    <path d="M569.5,273.1c-1.2,0-2.1-.2-2.8-.6-.7-.4-1.2-.9-1.5-1.4h-.1v1.7h-2.5v-5.7h2.5v1.3c0,1,.3,1.7,1,2.3s1.7.8,3.1.8,2.6-.3,3.2-.9c.7-.6,1-1.4,1-2.5s-.3-1.6-.8-2.1c-.5-.5-1.4-.9-2.5-1.2l-1.4-.3c-.9-.2-1.7-.5-2.5-.8-.7-.3-1.3-.7-1.8-1.2-.5-.5-.9-1.1-1.2-1.7-.3-.7-.4-1.4-.4-2.3s.1-1.5.4-2.2c.3-.7.7-1.2,1.3-1.7.6-.5,1.2-.8,2-1.1s1.7-.4,2.7-.4,2,.2,2.7.6,1.1.8,1.4,1.3h.1v-1.5h2.5v5.6h-2.5v-1.3c0-1-.3-1.7-1-2.2s-1.7-.7-3-.7-2.2.3-2.9.9c-.6.6-.9,1.3-.9,2.2s.3,1.7.9,2.2c.6.5,1.5.9,2.8,1.2l1.3.3c1.8.4,3.2,1.1,4.2,2,1,.9,1.5,2.2,1.5,3.8s-.2,1.7-.5,2.4c-.3.7-.7,1.4-1.3,1.9-.6.5-1.3.9-2.1,1.2s-1.8.4-2.9.4Z"/>
    <path d="M583.6,273c-1.1,0-1.8-.2-2.2-.7-.4-.4-.6-1.2-.6-2.1v-10.4h-1.9v-1.6h.5c.7,0,1.2-.1,1.4-.4.3-.2.5-.6.6-1.1l.9-2.5h1.6v3.9h3.5v1.6h-3.5v11.3h3.5v1.2c-.3.1-.8.3-1.5.4s-1.4.2-2.2.2Z"/>
    <path d="M589.3,271.2h1.9v-10.8l-1.9-.4v-1.2l5-1v2.6h.1c.1-.3.3-.7.5-1,.2-.3.4-.6.7-.8.3-.2.6-.4,1-.6.4-.1.8-.2,1.3-.2.9,0,1.5.2,2.1.6.5.4.8,1,.8,1.8s-.2,1.1-.5,1.5c-.3.4-.8.5-1.3.5s-1-.2-1.4-.5-.5-.7-.5-1.2,0-.6.2-.8c.1-.2.3-.3.5-.4h0c0-.1-.1-.1-.2-.1,0,0-.2,0-.3,0-.4,0-.7,0-1,.3-.3.2-.7.4-.9.7-.3.3-.5.6-.7,1s-.3.7-.3,1.1v8.7h2.5v1.5h-7.5v-1.5Z"/>
    <path d="M606.5,273.1c-1.5,0-2.6-.4-3.3-1.1-.7-.7-1.1-1.7-1.1-3s.5-2.5,1.5-3.2c1-.7,2.7-1.1,4.9-1.1h2v-1.9c0-1.1-.3-2-.8-2.6-.5-.6-1.3-.9-2.4-.9s-1.6.1-2.1.4h0c.2.2.4.4.6.6.2.2.3.6.3,1s-.2.9-.5,1.3-.8.5-1.3.5-.9-.2-1.2-.5c-.3-.3-.5-.8-.5-1.3s.1-.8.4-1.2c.3-.4.6-.8,1.1-1.1s1.1-.6,1.8-.8c.7-.2,1.5-.3,2.4-.3,1.8,0,3.1.4,4,1.2.9.8,1.3,2,1.3,3.4v8.7h1.9v1.3c-.3.1-.6.3-1,.4s-.8.2-1.3.2c-.9,0-1.5-.2-1.9-.7-.4-.4-.6-1-.6-1.7h0c0-.1-.1-.1-.1-.1-.1.3-.3.6-.5.9-.2.3-.5.6-.8.8-.3.2-.7.4-1.2.6-.5.1-1,.2-1.7.2ZM607.8,271.1c.8,0,1.5-.2,2-.6.5-.4.8-1,.8-1.9v-2.5h-1.7c-1.3,0-2.2.2-2.8.6-.5.4-.8,1-.8,1.8v.5c0,.7.2,1.2.6,1.5.4.3,1,.5,1.8.5Z"/>
    <path d="M622,273c-1.1,0-1.8-.2-2.2-.7-.4-.4-.6-1.2-.6-2.1v-10.4h-1.9v-1.6h.5c.7,0,1.2-.1,1.4-.4.3-.2.5-.6.6-1.1l.9-2.5h1.6v3.9h3.5v1.6h-3.5v11.3h3.5v1.2c-.3.1-.8.3-1.5.4s-1.4.2-2.2.2Z"/>
    <path d="M634.4,273.1c-1.1,0-2-.2-2.9-.5-.8-.4-1.5-.9-2.1-1.6-.6-.7-1-1.5-1.3-2.4-.3-.9-.5-2-.5-3.1s.2-2.2.5-3.1c.3-.9.8-1.7,1.4-2.4.6-.7,1.3-1.2,2.1-1.5.8-.4,1.7-.5,2.7-.5s1.9.2,2.7.5c.8.3,1.5.8,2,1.4.6.6,1,1.3,1.3,2.2.3.8.4,1.8.4,2.8v.8h-9.6v.9c0,1.5.4,2.6,1.1,3.4.7.8,1.7,1.2,2.9,1.2s2-.2,2.6-.7,1.2-1.1,1.5-1.8l1.2.7c-.2.5-.4,1-.7,1.4-.3.5-.7.9-1.2,1.3-.5.4-1.1.7-1.7.9-.7.2-1.4.4-2.2.4ZM631,264h6.4v-.3c0-1.3-.3-2.4-.8-3.1-.5-.7-1.3-1.1-2.4-1.1s-1.8.4-2.4,1.1c-.6.7-.8,1.8-.8,3.1v.4Z"/>
    <path d="M649.3,278.7c-1.2,0-2.3,0-3.1-.2-.8-.2-1.5-.4-2-.7-.5-.3-.9-.6-1.1-1.1s-.3-.9-.3-1.4,0-.7.3-1c.2-.3.4-.6.7-.8.3-.2.6-.4,1-.6s.8-.3,1.1-.4h0c-.6-.3-1.1-.6-1.4-1s-.5-1-.5-1.6.3-1.4.8-1.9c.5-.4,1.1-.8,1.8-1h0c-.9-.5-1.6-1-2.1-1.8-.5-.7-.8-1.6-.8-2.6s.1-1.4.4-2c.3-.6.7-1.1,1.2-1.5.5-.4,1.1-.7,1.8-.9.7-.2,1.5-.3,2.4-.3s1.5,0,2.1.3c.6.2,1.1.4,1.6.7,0-1.1.3-1.8.7-2.3.4-.4,1-.7,1.7-.7s.9.1,1.2.4.5.6.5,1.1-.1.8-.4,1.1c-.3.3-.7.4-1.2.4s-1-.2-1.4-.6h-.1v1.1c.3.3.6.8.9,1.2.3.5.4,1.1.4,1.9s-.1,1.4-.4,2c-.3.6-.7,1.1-1.2,1.5-.5.4-1.1.7-1.9,1-.7.2-1.5.3-2.4.3s-.6,0-.9,0c-.3,0-.6,0-.9-.1-.4.1-.7.3-1,.6-.3.3-.4.6-.4,1s.2.7.5.9c.3.2.9.3,1.6.3h3.3c1.8,0,3.1.4,3.9,1.1.8.7,1.2,1.7,1.2,2.9s-.6,2.6-1.9,3.4c-1.2.8-3.1,1.3-5.6,1.3ZM645.4,275.1c0,.7.3,1.2.9,1.5.6.3,1.4.5,2.5.5h1.5c1.3,0,2.2-.2,2.9-.6.7-.4,1-1,1-1.7s-.2-1.2-.7-1.5c-.5-.3-1.2-.4-2.2-.4h-4.5c-.9.5-1.3,1.2-1.3,2.2ZM649.4,265.9c.9,0,1.6-.2,2-.7.4-.5.7-1.2.7-2.1v-.9c0-.9-.2-1.6-.7-2.1-.4-.5-1.1-.7-2-.7s-1.6.2-2,.7c-.4.5-.7,1.2-.7,2.1v.9c0,.9.2,1.6.7,2.1.4.5,1.1.7,2,.7Z"/>
    <path d="M658.7,271.2h1.9v-10.8l-1.9-.4v-1.2l5-1v13.4h1.9v1.5h-6.9v-1.5ZM662.1,255.5c-.6,0-1.1-.2-1.4-.5-.3-.3-.5-.8-.5-1.3v-.2c0-.5.2-1,.5-1.3.3-.3.8-.5,1.4-.5s1.1.2,1.4.5c.3.3.5.8.5,1.3v.2c0,.5-.2,1-.5,1.3-.3.3-.8.5-1.4.5Z"/>
    <path d="M667.7,271.4l7.9-11.6h-5.6v2.7h-2.1v-4.3h11.5v1.3l-7.9,11.6h6v-2.7h2.1v4.4h-12v-1.3Z"/>
    <path d="M688.5,273.1c-1.1,0-2-.2-2.9-.5-.8-.4-1.5-.9-2.1-1.6-.6-.7-1-1.5-1.3-2.4-.3-.9-.5-2-.5-3.1s.2-2.2.5-3.1c.3-.9.8-1.7,1.4-2.4.6-.7,1.3-1.2,2.1-1.5.8-.4,1.7-.5,2.7-.5s1.9.2,2.7.5c.8.3,1.5.8,2,1.4.6.6,1,1.3,1.3,2.2.3.8.4,1.8.4,2.8v.8h-9.6v.9c0,1.5.4,2.6,1.1,3.4.7.8,1.7,1.2,2.9,1.2s2-.2,2.6-.7,1.2-1.1,1.5-1.8l1.2.7c-.2.5-.4,1-.7,1.4-.3.5-.7.9-1.2,1.3-.5.4-1.1.7-1.7.9-.7.2-1.4.4-2.2.4ZM685,264h6.4v-.3c0-1.3-.3-2.4-.8-3.1-.5-.7-1.3-1.1-2.4-1.1s-1.8.4-2.4,1.1c-.6.7-.8,1.8-.8,3.1v.4Z"/>
  </g>
  <g>
    <path d="M853.8,271.2h2v-16.5h-2v-1.5h7.4v1.5h-2v16.5h2v1.5h-7.4v-1.5Z"/>
    <path d="M869.8,273.1c-.9,0-1.7-.2-2.4-.5-.7-.3-1.3-.8-1.8-1.5-.5-.7-.9-1.5-1.2-2.4-.3-.9-.4-2-.4-3.2s.1-2.3.4-3.2c.3-.9.7-1.7,1.2-2.4s1.1-1.2,1.8-1.5c.7-.3,1.5-.5,2.4-.5s2,.3,2.6.8c.7.5,1.1,1.1,1.4,1.8h.1v-6.3l-1.9-.4v-1.2l5-1v19l1.9.4v1.2l-5,1v-2.5h-.1c-.3.7-.8,1.3-1.5,1.8-.7.5-1.6.8-2.6.8ZM870.8,271.1c.4,0,.8,0,1.2-.2.4-.1.7-.3,1.1-.5.3-.2.6-.5.7-.9.2-.3.3-.7.3-1.1v-5.7c0-.4,0-.8-.3-1.1-.2-.3-.4-.6-.7-.9-.3-.2-.7-.4-1.1-.5-.4-.1-.8-.2-1.2-.2-1.1,0-1.9.4-2.5,1.1s-1,1.7-1,3v3c0,1.3.3,2.3,1,3s1.5,1.1,2.5,1.1Z"/>
    <path d="M887.9,273.1c-1.1,0-2-.2-2.9-.5-.8-.4-1.6-.9-2.1-1.6-.6-.7-1-1.5-1.3-2.4-.3-.9-.5-2-.5-3.1s.2-2.2.5-3.1c.3-.9.8-1.7,1.4-2.4.6-.7,1.3-1.2,2.1-1.5.8-.4,1.7-.5,2.7-.5s1.9.2,2.7.5c.8.3,1.5.8,2,1.4.6.6,1,1.3,1.3,2.2.3.8.4,1.8.4,2.8v.8h-9.6v.9c0,1.5.4,2.6,1.1,3.4.7.8,1.7,1.2,2.9,1.2s2-.2,2.6-.7,1.2-1.1,1.5-1.8l1.2.7c-.2.5-.4,1-.7,1.4-.3.5-.7.9-1.2,1.3-.5.4-1.1.7-1.7.9-.7.2-1.4.4-2.2.4ZM884.5,264h6.4v-.3c0-1.3-.3-2.4-.8-3.1-.5-.7-1.3-1.1-2.4-1.1s-1.8.4-2.4,1.1c-.6.7-.8,1.8-.8,3.1v.4Z"/>
    <path d="M901.1,273.1c-1.5,0-2.6-.4-3.3-1.1-.7-.7-1.1-1.7-1.1-3s.5-2.5,1.5-3.2,2.7-1.1,4.9-1.1h2v-1.9c0-1.1-.3-2-.8-2.6-.5-.6-1.3-.9-2.4-.9s-1.6.1-2.1.4h0c.2.2.4.4.6.6.2.2.3.6.3,1s-.2.9-.5,1.3-.8.5-1.3.5-.9-.2-1.2-.5c-.3-.3-.5-.8-.5-1.3s.1-.8.4-1.2c.3-.4.6-.8,1.1-1.1.5-.3,1.1-.6,1.8-.8.7-.2,1.5-.3,2.4-.3,1.8,0,3.1.4,4,1.2.9.8,1.3,2,1.3,3.4v8.7h1.9v1.3c-.3.1-.6.3-1,.4-.4.1-.8.2-1.3.2-.9,0-1.5-.2-1.9-.7-.4-.4-.6-1-.6-1.7h0c0-.1-.1-.1-.1-.1-.1.3-.3.6-.5.9-.2.3-.5.6-.8.8-.3.2-.7.4-1.2.6-.5.1-1,.2-1.7.2ZM902.3,271.1c.8,0,1.5-.2,2-.6.5-.4.8-1,.8-1.9v-2.5h-1.7c-1.3,0-2.2.2-2.8.6-.5.4-.8,1-.8,1.8v.5c0,.7.2,1.2.6,1.5s1,.5,1.8.5Z"/>
    <path d="M916.6,273c-1.1,0-1.8-.2-2.2-.7-.4-.4-.6-1.2-.6-2.1v-10.4h-1.9v-1.6h.5c.7,0,1.2-.1,1.4-.4s.5-.6.6-1.1l.9-2.5h1.6v3.9h3.5v1.6h-3.5v11.3h3.5v1.2c-.3.1-.8.3-1.5.4s-1.4.2-2.2.2Z"/>
    <path d="M929,273.1c-1.1,0-2-.2-2.9-.5-.8-.4-1.6-.9-2.1-1.6-.6-.7-1-1.5-1.3-2.4-.3-.9-.5-2-.5-3.1s.2-2.2.5-3.1c.3-.9.8-1.7,1.4-2.4.6-.7,1.3-1.2,2.1-1.5.8-.4,1.7-.5,2.7-.5s1.9.2,2.7.5c.8.3,1.5.8,2,1.4.6.6,1,1.3,1.3,2.2.3.8.4,1.8.4,2.8v.8h-9.6v.9c0,1.5.4,2.6,1.1,3.4.7.8,1.7,1.2,2.9,1.2s2-.2,2.6-.7,1.2-1.1,1.5-1.8l1.2.7c-.2.5-.4,1-.7,1.4-.3.5-.7.9-1.2,1.3-.5.4-1.1.7-1.7.9-.7.2-1.4.4-2.2.4ZM925.5,264h6.4v-.3c0-1.3-.3-2.4-.8-3.1-.5-.7-1.3-1.1-2.4-1.1s-1.8.4-2.4,1.1c-.6.7-.8,1.8-.8,3.1v.4Z"/>
  </g>
  <g>
    <path d="M1015.4,271.2h2v-16.5h-2v-1.5h7.4v1.5h-2v16.5h2v1.5h-7.4v-1.5Z"/>
    <path d="M1025.4,271.2h1.9v-10.8l-1.9-.4v-1.2l5-1v2.6h.1c.1-.3.3-.6.5-1,.2-.3.5-.6.8-.8.3-.2.7-.4,1.2-.6.4-.1,1-.2,1.5-.2,1.2,0,2.2.2,3,.7.7.5,1.2,1.2,1.5,2.1h0c.1-.3.3-.7.6-1s.6-.6.9-.9c.4-.3.8-.5,1.2-.6.5-.2,1-.2,1.6-.2,1.7,0,3,.5,3.7,1.4.7.9,1.1,2.3,1.1,4.1v8h1.9v1.5h-6.8v-1.5h1.8v-7.8c0-1.2-.2-2.1-.7-2.7s-1.2-.8-2.1-.8-.7,0-1.1.2c-.4.1-.7.3-1,.5-.3.2-.5.5-.7.8-.2.3-.3.7-.3,1.2v8.7h1.8v1.5h-6.7v-1.5h1.8v-7.8c0-1.2-.2-2.1-.7-2.7s-1.2-.8-2.1-.8-.7,0-1.1.2c-.4.1-.7.3-1,.5-.3.2-.5.5-.7.8-.2.3-.3.7-.3,1.2v8.7h1.8v1.5h-6.8v-1.5Z"/>
    <path d="M1051.9,276.8h1.9v-16.4l-1.9-.4v-1.2l5-1v2.5h.1c.3-.7.8-1.3,1.5-1.8s1.5-.8,2.6-.8,1.7.2,2.4.5c.7.3,1.3.8,1.8,1.5s.9,1.5,1.2,2.4c.3.9.4,2,.4,3.2s-.1,2.3-.4,3.2c-.3.9-.7,1.7-1.2,2.4-.5.7-1.1,1.2-1.8,1.5s-1.5.5-2.4.5-2-.3-2.6-.8c-.7-.5-1.1-1.1-1.4-1.8h-.1v6.3h2.5v1.5h-7.5v-1.5ZM1060.2,271.1c1.1,0,1.9-.4,2.5-1.1s1-1.7,1-3v-3c0-1.3-.3-2.3-1-3s-1.5-1.1-2.5-1.1-.8,0-1.2.2c-.4.1-.7.3-1,.5s-.6.5-.7.9c-.2.3-.3.7-.3,1.1v5.7c0,.4,0,.8.3,1.1.2.3.4.6.7.9.3.2.7.4,1,.5s.8.2,1.2.2Z"/>
    <path d="M1069.3,271.2h1.9v-17.2l-1.9-.4v-1.2l5-1v19.8h1.9v1.5h-6.9v-1.5Z"/>
    <path d="M1085.1,273.1c-1.1,0-2-.2-2.9-.5-.8-.4-1.5-.9-2.1-1.6-.6-.7-1-1.5-1.3-2.4-.3-.9-.5-2-.5-3.1s.2-2.2.5-3.1c.3-.9.8-1.7,1.4-2.4.6-.7,1.3-1.2,2.1-1.5.8-.4,1.7-.5,2.7-.5s1.9.2,2.7.5c.8.3,1.5.8,2,1.4.5.6,1,1.3,1.3,2.2.3.8.4,1.8.4,2.8v.8h-9.6v.9c0,1.5.4,2.6,1.1,3.4.7.8,1.7,1.2,2.9,1.2s2-.2,2.6-.7,1.2-1.1,1.5-1.8l1.2.7c-.2.5-.4,1-.7,1.4-.3.5-.7.9-1.2,1.3s-1.1.7-1.7.9c-.7.2-1.4.4-2.2.4ZM1081.6,264h6.4v-.3c0-1.3-.3-2.4-.8-3.1-.5-.7-1.3-1.1-2.4-1.1s-1.8.4-2.4,1.1c-.6.7-.8,1.8-.8,3.1v.4Z"/>
    <path d="M1093.6,271.2h1.9v-10.8l-1.9-.4v-1.2l5-1v2.6h.1c.1-.3.3-.6.5-1,.2-.3.5-.6.8-.8.3-.2.7-.4,1.2-.6.4-.1,1-.2,1.5-.2,1.2,0,2.2.2,3,.7.7.5,1.2,1.2,1.5,2.1h0c.1-.3.3-.7.6-1s.6-.6.9-.9c.4-.3.8-.5,1.2-.6.5-.2,1-.2,1.6-.2,1.7,0,3,.5,3.7,1.4.7.9,1.1,2.3,1.1,4.1v8h1.9v1.5h-6.8v-1.5h1.8v-7.8c0-1.2-.2-2.1-.7-2.7-.5-.6-1.2-.8-2.1-.8s-.7,0-1.1.2c-.4.1-.7.3-1,.5-.3.2-.5.5-.7.8-.2.3-.3.7-.3,1.2v8.7h1.8v1.5h-6.7v-1.5h1.8v-7.8c0-1.2-.2-2.1-.7-2.7s-1.2-.8-2.1-.8-.7,0-1.1.2c-.4.1-.7.3-1,.5-.3.2-.5.5-.7.8-.2.3-.3.7-.3,1.2v8.7h1.8v1.5h-6.8v-1.5Z"/>
    <path d="M1127.2,273.1c-1.1,0-2-.2-2.9-.5-.8-.4-1.6-.9-2.1-1.6-.6-.7-1-1.5-1.3-2.4-.3-.9-.5-2-.5-3.1s.2-2.2.5-3.1c.3-.9.8-1.7,1.4-2.4.6-.7,1.3-1.2,2.1-1.5.8-.4,1.7-.5,2.7-.5s1.9.2,2.7.5c.8.3,1.5.8,2,1.4.6.6,1,1.3,1.3,2.2.3.8.4,1.8.4,2.8v.8h-9.6v.9c0,1.5.4,2.6,1.1,3.4.7.8,1.7,1.2,2.9,1.2s2-.2,2.6-.7,1.2-1.1,1.5-1.8l1.2.7c-.2.5-.4,1-.7,1.4-.3.5-.7.9-1.2,1.3-.5.4-1.1.7-1.7.9-.7.2-1.4.4-2.2.4ZM1123.8,264h6.4v-.3c0-1.3-.3-2.4-.8-3.1-.5-.7-1.3-1.1-2.4-1.1s-1.8.4-2.4,1.1c-.6.7-.8,1.8-.8,3.1v.4Z"/>
    <path d="M1135.8,271.2h1.9v-10.8l-1.9-.4v-1.2l5-1v2.6h.1c.1-.3.3-.6.5-1,.2-.3.5-.6.9-.8.3-.2.7-.4,1.2-.6s1-.2,1.6-.2c1.8,0,3,.5,3.8,1.4.7.9,1.1,2.3,1.1,4.1v8h1.9v1.5h-6.9v-1.5h1.8v-7.8c0-1.2-.2-2.1-.7-2.7-.5-.6-1.2-.8-2.2-.8s-.7,0-1.1.2c-.4.1-.7.3-1,.5-.3.2-.5.5-.7.8-.2.3-.3.7-.3,1.1v8.7h1.8v1.5h-6.9v-1.5Z"/>
    <path d="M1158.4,273c-1.1,0-1.8-.2-2.2-.7-.4-.4-.6-1.2-.6-2.1v-10.4h-1.9v-1.6h.5c.7,0,1.2-.1,1.4-.4s.5-.6.6-1.1l.9-2.5h1.6v3.9h3.5v1.6h-3.5v11.3h3.5v1.2c-.3.1-.8.3-1.5.4-.7.1-1.4.2-2.2.2Z"/>
  </g>
</svg>